<svg xmlns="http://www.w3.org/2000/svg" xmlns:xlink="http://www.w3.org/1999/xlink" version="1.1" width="1000" height="1000" viewBox="0 0 1000 1000" xml:space="preserve">
<desc>Created with Fabric.js 3.5.0</desc>
<defs>
</defs>
<rect x="0" y="0" width="100%" height="100%" fill="#ffffff"/>
<g transform="matrix(5.7371 0 0 5.7371 499.9973 499.9973)" id="343828" clip-path="url(#CLIPPATH_3)">
<clipPath id="CLIPPATH_3">
	<rect transform="matrix(1 0 0 1 0.0001 0.0002)" id="clip0_302_100" x="-79" y="-79" rx="0" ry="0" width="158" height="158"/>
</clipPath>
<path style="stroke: none; stroke-width: 1; stroke-dasharray: none; stroke-linecap: butt; stroke-dashoffset: 0; stroke-linejoin: miter; stroke-miterlimit: 4; is-custom-font: none; font-file-url: none; fill: rgb(39,72,95); fill-rule: nonzero; opacity: 1;" vector-effect="non-scaling-stroke" transform=" translate(-78.9999, -78.9998)" d="M 154.685 0.000367219 H 3.31409 C 1.48378 0.000367219 0 1.48415 0 3.31478 V 154.686 C 0 156.516 1.48378 158 3.31409 158 H 154.685 C 156.515 158 157.999 156.516 157.999 154.686 V 3.31478 C 158 3.26912 158 3.22347 157.999 3.17813 C 157.962 1.38523 156.478 -0.0373614 154.685 0.000367219 Z" stroke-linecap="round"/>
</g>
<g transform="matrix(1.3194 0 0 1.4433 499.9972 510.4787)" id="75991">
<g style="" vector-effect="non-scaling-stroke">
		<g transform="matrix(1 0 0 1 -83.31 2.48)" id="Layer_1">
<path style="stroke: none; stroke-width: 1; stroke-dasharray: none; stroke-linecap: butt; stroke-dashoffset: 0; stroke-linejoin: miter; stroke-miterlimit: 4; is-custom-font: none; font-file-url: none; fill: rgb(253,253,253); fill-rule: nonzero; opacity: 1;" transform=" translate(-876.69, -542.48)" d="M 759.53 768 c -5 -2.91 -9.87 -6 -14.92 -8.71 c -14.46 -7.88 -29 -15.72 -43.53 -23.37 c -2.79 -1.47 -3.61 -3.16 -3.61 -6.2 q 0.1 -204.19 0.07 -408.4 c 0 -1.27 0.11 -2.55 0.19 -4.36 c 11.44 5.59 22.47 11 33.47 16.37 c 9.85 4.84 19.73 9.65 29.46 14.72 a 7 7 0 0 1 2.93 4.31 a 33 33 0 0 1 0.44 7.46 q 0.18 58.21 0.27 116.45 c 0 3.23 0.83 5 3.84 6.53 q 93.06 46.57 186 93.43 c 3.32 1.68 5.89 1.92 9.22 0.14 c 7.48 -4 15.14 -7.67 22.84 -11.22 c 1.57 -0.72 4 -1 5.46 -0.32 c 21.15 10.53 42.19 21.25 63.25 31.94 a 6.52 6.52 0 0 1 1 0.94 c -2.75 1.38 -5.37 2.72 -8 4 c -28.38 13.9 -56.79 27.74 -85.12 41.75 a 8.42 8.42 0 0 1 -8.33 0.07 Q 861.72 599.18 768.89 555 c -1.92 -0.91 -3.88 -1.73 -6.52 -2.91 v 6 q -0.17 93.72 -0.35 187.44 c 0 7.49 -0.32 15 -0.49 22.47 Z" stroke-linecap="round"/>
</g>
		<g transform="matrix(1 0 0 1 185.665 -1.145)" id="Layer_1">
<path style="stroke: none; stroke-width: 1; stroke-dasharray: none; stroke-linecap: butt; stroke-dashoffset: 0; stroke-linejoin: miter; stroke-miterlimit: 4; is-custom-font: none; font-file-url: none; fill: rgb(253,253,253); fill-rule: nonzero; opacity: 1;" transform=" translate(-1145.665, -538.855)" d="M 1222.53 589 a 41.63 41.63 0 0 0 -0.8 5.72 q -0.15 66.25 -0.12 132.5 c 0 3.57 -0.86 5.59 -4.23 7.35 c -18 9.43 -35.78 19.18 -53.66 28.8 c -1.4 0.76 -2.88 1.38 -4.93 2.36 v -222 c -7 3.36 -13.36 6.57 -19.86 9.43 a 7.28 7.28 0 0 1 -5.42 0.18 c -21.07 -10.31 -42 -20.82 -63 -31.29 a 16.13 16.13 0 0 1 -1.74 -1.32 c 9.35 -4.67 18.31 -9.19 27.3 -13.63 c 18.5 -9.14 37 -18.32 55.57 -27.28 c 3 -1.46 3.84 -3.19 3.84 -6.44 c 0 -41.33 0.14 -82.66 0.23 -124 c 0 -2.68 -0.14 -4.94 3.09 -6.5 c 20.69 -9.95 41.26 -20.16 61.88 -30.27 a 14.81 14.81 0 0 1 1.88 -0.63 Z" stroke-linecap="round"/>
</g>
		<g transform="matrix(1 0 0 1 4.3277 1.4308)" id="Layer_1">
<path style="stroke: none; stroke-width: 1; stroke-dasharray: none; stroke-linecap: butt; stroke-dashoffset: 0; stroke-linejoin: miter; stroke-miterlimit: 4; is-custom-font: none; font-file-url: none; fill: rgb(253,253,253); fill-rule: nonzero; opacity: 1;" transform=" translate(-964.3277, -541.4308)" d="M 797.8 619.59 c 8.27 4.07 16.31 8 24.34 12 q 67.8 33.47 135.58 67 a 8 8 0 0 0 7.9 0.07 q 67.89 -33 135.87 -65.83 l 19.45 -9.45 c -5.17 -2.67 -9.84 -5.16 -14.56 -7.52 Q 962.59 544 818.79 472.23 c -4.62 -2.3 -9.38 -4.35 -13.83 -6.92 a 6.28 6.28 0 0 1 -2.81 -4.46 c -0.19 -19.33 -0.16 -38.66 0 -58 a 4.94 4.94 0 0 1 2.14 -3.69 q 79.34 -41.09 158.85 -81.84 a 8.65 8.65 0 0 1 6.77 -0.14 q 63.3 31.33 126.4 63 c 1 0.5 1.93 1.16 3.46 2.09 L 1057.2 403 c -6.44 3.12 -13 6 -19.29 9.4 a 9.25 9.25 0 0 1 -9.28 0.25 q -29 -13.47 -58.14 -26.43 c -2 -0.87 -5 -1.13 -6.87 -0.22 c -29.28 14.37 -58.43 29 -87.62 43.53 c -0.44 0.23 -0.84 0.54 -1.87 1.2 c 4.69 2.36 9 4.57 13.39 6.75 q 120.3 60.17 240.66 120.26 c 2.67 1.34 3.41 2.9 3.41 5.72 q -0.12 58.5 0 117 c 0 3.15 -1 4.63 -3.82 6 Q 1046.11 726 964.48 765.67 a 8.3 8.3 0 0 1 -6.36 0 q -78.84 -38.74 -157.49 -77.87 c -1.57 -0.78 -3.43 -3 -3.44 -4.56 c -0.21 -20.66 -0.1 -41.33 -0.06 -62 A 7.93 7.93 0 0 1 797.8 619.59 Z" stroke-linecap="round"/>
</g>
</g>
</g>
</svg>