<svg id="Layer_1" data-name="Layer 1" xmlns="http://www.w3.org/2000/svg" viewBox="0 0 525.06 456"><path d="M759.53,768c-5-2.91-9.87-6-14.92-8.71-14.46-7.88-29-15.72-43.53-23.37-2.79-1.47-3.61-3.16-3.61-6.2q.1-204.19.07-408.4c0-1.27.11-2.55.19-4.36,11.44,5.59,22.47,11,33.47,16.37,9.85,4.84,19.73,9.65,29.46,14.72a7,7,0,0,1,2.93,4.31,33,33,0,0,1,.44,7.46q.18,58.21.27,116.45c0,3.23.83,5,3.84,6.53q93.06,46.57,186,93.43c3.32,1.68,5.89,1.92,9.22.14,7.48-4,15.14-7.67,22.84-11.22,1.57-.72,4-1,5.46-.32,21.15,10.53,42.19,21.25,63.25,31.94a6.52,6.52,0,0,1,1,.94c-2.75,1.38-5.37,2.72-8,4-28.38,13.9-56.79,27.74-85.12,41.75a8.42,8.42,0,0,1-8.33.07Q861.72,599.18,768.89,555c-1.92-.91-3.88-1.73-6.52-2.91v6q-.17,93.72-.35,187.44c0,7.49-.32,15-.49,22.47Z" transform="translate(-697.47 -312)"/><path d="M1222.53,589a41.63,41.63,0,0,0-.8,5.72q-.15,66.25-.12,132.5c0,3.57-.86,5.59-4.23,7.35-18,9.43-35.78,19.18-53.66,28.8-1.4.76-2.88,1.38-4.93,2.36v-222c-7,3.36-13.36,6.57-19.86,9.43a7.28,7.28,0,0,1-5.42.18c-21.07-10.31-42-20.82-63-31.29a16.13,16.13,0,0,1-1.74-1.32c9.35-4.67,18.31-9.19,27.3-13.63,18.5-9.14,37-18.32,55.57-27.28,3-1.46,3.84-3.19,3.84-6.44,0-41.33.14-82.66.23-124,0-2.68-.14-4.94,3.09-6.5,20.69-9.95,41.26-20.16,61.88-30.27a14.81,14.81,0,0,1,1.88-.63Z" transform="translate(-697.47 -312)"/><path d="M797.8,619.59c8.27,4.07,16.31,8,24.34,12q67.8,33.47,135.58,67a8,8,0,0,0,7.9.07q67.89-33,135.87-65.83l19.45-9.45c-5.17-2.67-9.84-5.16-14.56-7.52Q962.59,544,818.79,472.23c-4.62-2.3-9.38-4.35-13.83-6.92a6.28,6.28,0,0,1-2.81-4.46c-.19-19.33-.16-38.66,0-58a4.94,4.94,0,0,1,2.14-3.69q79.34-41.09,158.85-81.84a8.65,8.65,0,0,1,6.77-.14q63.3,31.33,126.4,63c1,.5,1.93,1.16,3.46,2.09L1057.2,403c-6.44,3.12-13,6-19.29,9.4a9.25,9.25,0,0,1-9.28.25q-29-13.47-58.14-26.43c-2-.87-5-1.13-6.87-.22-29.28,14.37-58.43,29-87.62,43.53-.44.23-.84.54-1.87,1.2,4.69,2.36,9,4.57,13.39,6.75q120.3,60.17,240.66,120.26c2.67,1.34,3.41,2.9,3.41,5.72q-.12,58.5,0,117c0,3.15-1,4.63-3.82,6Q1046.11,726,964.48,765.67a8.3,8.3,0,0,1-6.36,0q-78.84-38.74-157.49-77.87c-1.57-.78-3.43-3-3.44-4.56-.21-20.66-.1-41.33-.06-62A7.93,7.93,0,0,1,797.8,619.59Z" transform="translate(-697.47 -312)"/></svg>